<svg xmlns="http://www.w3.org/2000/svg" xmlns:xlink="http://www.w3.org/1999/xlink" version="1.1" x="0px" y="0px" viewBox="0 0 64 80" enable-background="new 0 0 64 64" xml:space="preserve"><path d="M32,64C14.355,64,0,49.645,0,32C0,14.355,14.355,0,32,0c17.645,0,32,14.355,32,32C64,49.645,49.645,64,32,64z M32,3  C16.009,3,3,16.009,3,32c0,15.99,13.009,29,29,29c15.99,0,29-13.01,29-29C61,16.009,47.99,3,32,3z"/><path d="M40.272,28.69l-7.065,8.474c-0.07,0.094-0.148,0.184-0.242,0.263c-0.244,0.203-0.532,0.314-0.826,0.341  c-0.046,0.004-0.093,0-0.139,0s-0.093,0.004-0.139,0c-0.294-0.026-0.582-0.138-0.826-0.341c-0.093-0.077-0.171-0.166-0.24-0.259  l-7.067-8.478c-0.53-0.637-0.444-1.582,0.191-2.113c0.637-0.529,1.582-0.443,2.112,0.191L32,33.928l5.968-7.157  c0.531-0.637,1.477-0.723,2.113-0.191C40.717,27.108,40.803,28.054,40.272,28.69z"/></svg>